# xmcd
#
# Track frame offsets: 
#        150
#        18000
#        34724
#        52349
#        69824
#        83774
#        97874
#        113999
#        130649
#        148500
#        162825
#        179926
#        195227
#        210527
#
# Disc length: 3005 seconds
#
# Revision: 0
# Processed by: cddbd v1.5.2PL0 Copyright (c) Steve Scherf et al.
# Submitted via: ExactAudioCopy v1.0b3
#
DISCID=b40bbb0e
DTITLE=Various Artist - 4 ปีทอง ยูทู เรคคอร์ด
DYEAR=2007
DGENRE=Country
TTITLE0=จอย ศิริลักษณ์ - คนในหางตา (เวอร์ชั่นลูกทุ่ง)
TTITLE1=ดวงตา คงทอง - ขอรักเดียว
TTITLE2=หลิว อาจารียา - กลัวลืมไม่กลัวหรอก
TTITLE3=ปุ๋ย รุ่งทิวา - ชิว ชิว เลยพี่
TTITLE4=แอม อินทิรา - คนหัวใจเซอร์
TTITLE5=จิ้งหรีดขาว - ผู้หญิงยุคใหม่
TTITLE6=ลิซ่า ไปรพิศ - หยังงี้แหละ
TTITLE7=จอย ศิริลักษณ์ - รู้ทันน่า
TTITLE8=ดวงตา คงทอง - ฝากรักฝากใจ
TTITLE9=แอม อินทิรา - ผู้ชายปากหวาน
TTITLE10=ปุ๋ย รุ่งทิวา - ริคเตอร์ใจ
TTITLE11=จิ้งหรีดขาว - รักฉันอย่าถามอายุ
TTITLE12=ลิซ่า ไปรพิศ - จับหนี
TTITLE13=หลิน พัชร์พิชา - เงียบเป็นเป่าสาก
EXTD=
EXTT0=
EXTT1=
EXTT2=
EXTT3=
EXTT4=
EXTT5=
EXTT6=
EXTT7=
EXTT8=
EXTT9=
EXTT10=
EXTT11=
EXTT12=
EXTT13=
PLAYORDER=
